# xmcd CD database file
#
# Track frame offsets:
#	150
#	17302
#	36682
#	54550
#	82670
#	98875
#	123985
#	148012
#	164520
#	179265
#	198285
#	213145
#
# Disc length: 3067 seconds
#
# Revision: 2
# Processed by: cddbd v1.4PL0 Copyright (c) Steve Scherf et al.
# Submitted via: CDex 1.50Beta3
#
DISCID=9b0bf90c
DTITLE=John Mayall - Blues for the Lost Days
DYEAR=1997
DGENRE=Blues
TTITLE0=Dead City
TTITLE1=Stone Cold Deal
TTITLE2=All Those Heroes
TTITLE3=Blues for the Lost Days
TTITLE4=Trenches
TTITLE5=One in a Million
TTITLE6=How Can You Live Like That
TTITLE7=Some Other Day
TTITLE8=I Don't Mind
TTITLE9=It Ain't Safe
TTITLE10=Sen-Say-Shun
TTITLE11=You Are For Real
EXTD=YEAR: 1997
EXTT0=
EXTT1=
EXTT2=
EXTT3=
EXTT4=
EXTT5=
EXTT6=
EXTT7=
EXTT8=
EXTT9=
EXTT10=
EXTT11=
PLAYORDER=
